<?xml version="1.0" encoding="UTF-8"?>
<svg width="42px" height="54px" viewBox="0 0 42 54" version="1.1" xmlns="http://www.w3.org/2000/svg" xmlns:xlink="http://www.w3.org/1999/xlink">
    <!-- Generator: Sketch 49.3 (51167) - http://www.bohemiancoding.com/sketch -->
    <title>Slice 1</title>
    <desc>Created with Sketch.</desc>
    <defs></defs>
    <g id="Page-1" stroke="none" stroke-width="1" fill="none" fill-rule="evenodd">
        <g id="LUC_vertical_black" fill="#1A1919">
            <path d="M2.839,16.031 L2.839,17.088 L4.302,16.569 L4.302,16.549 L2.839,16.031 Z M5.406,16.922 L4.169,17.381 C3.357,17.68 2.532,17.973 1.867,18.226 C1.275,18.452 1.229,18.544 1.19,18.93 L1.003,18.93 L1.003,17.181 L1.19,17.181 L1.216,17.368 C1.256,17.621 1.322,17.634 1.575,17.554 C1.773,17.487 2.187,17.328 2.532,17.188 L2.532,15.958 C2.332,15.871 1.961,15.751 1.682,15.659 C1.328,15.539 1.241,15.592 1.208,15.885 L1.19,16.071 L1.003,16.071 L1.003,14.594 L1.19,14.594 C1.241,15.006 1.269,15.08 1.867,15.313 L5.325,16.656 L5.406,16.922 Z" id="Fill-48"></path>
            <path d="M2.014,20.523 C1.401,20.523 1.275,20.59 1.275,21.103 C1.275,22.206 2.053,22.778 3.158,22.778 C4.582,22.778 5.072,22.06 5.072,20.996 C5.072,20.776 5.047,20.604 5.014,20.564 C4.98,20.523 4.86,20.523 4.687,20.523 L2.014,20.523 Z M5.325,21.209 C5.325,21.954 5.167,22.632 4.741,23.071 C4.435,23.377 3.942,23.63 3.357,23.63 C1.722,23.63 1.003,22.366 1.003,20.81 L1.003,19.18 L1.19,19.18 C1.229,19.726 1.282,19.779 2,19.779 L4.327,19.779 C5.047,19.779 5.101,19.726 5.14,19.233 L5.325,19.233 L5.325,21.209 Z" id="Fill-49"></path>
            <path d="M3.21,27.079 C2.799,27.079 2.466,26.753 2.466,26.354 C2.466,25.955 2.799,25.622 3.21,25.622 C3.616,25.622 3.956,25.955 3.956,26.354 C3.956,26.753 3.616,27.079 3.21,27.079" id="Fill-50"></path>
            <path d="M5.325,29.958 L2.153,31.428 L5.325,32.818 L5.325,34.075 L5.14,34.075 C5.086,33.537 5.061,33.51 4.327,33.523 L2,33.589 C1.256,33.609 1.241,33.629 1.19,34.168 L1.003,34.168 L1.003,32.312 L1.19,32.312 C1.241,32.832 1.256,32.852 2,32.844 L4.554,32.818 L4.554,32.791 L1.083,31.281 L1.083,31.082 L4.421,29.625 L4.421,29.599 L2.699,29.552 C2.1,29.54 1.734,29.546 1.535,29.573 C1.282,29.599 1.229,29.738 1.19,30.178 L1.003,30.178 L1.003,28.602 L1.19,28.602 C1.216,28.934 1.282,29.067 1.535,29.113 C1.734,29.147 2.126,29.2 2.766,29.233 L4.135,29.306 C5.021,29.353 5.086,29.306 5.14,28.735 L5.325,28.735 L5.325,29.958" id="Fill-51"></path>
            <path d="M2.837,35.947 L2.851,37.004 L4.307,36.466 L4.307,36.446 L2.837,35.947 Z M5.417,36.804 L4.184,37.279 C3.378,37.589 2.557,37.894 1.896,38.155 C1.307,38.388 1.262,38.482 1.227,38.869 L1.04,38.871 L1.017,37.123 L1.203,37.119 L1.232,37.306 C1.275,37.558 1.342,37.57 1.594,37.487 C1.792,37.418 2.202,37.253 2.547,37.108 L2.53,35.878 C2.329,35.794 1.955,35.679 1.675,35.589 C1.32,35.475 1.235,35.53 1.205,35.822 L1.188,36.008 L1.002,36.012 L0.981,34.535 L1.169,34.533 C1.228,34.944 1.254,35.017 1.856,35.242 L5.333,36.539 L5.417,36.804 Z" id="Fill-52"></path>
            <path d="M4.558,38.86 C5.243,38.646 5.277,38.58 5.152,38.041 L5.329,37.985 L5.888,39.777 L5.71,39.832 C5.532,39.393 5.466,39.358 4.779,39.572 L2.729,40.212 C2.034,40.428 1.465,40.543 0.877,40.113 C0.662,39.957 0.449,39.745 0.277,39.464 L0.431,39.333 C0.761,39.696 1.099,39.773 1.459,39.744 C1.784,39.712 2.157,39.609 2.588,39.475 L4.558,38.86" id="Fill-53"></path>
            <path d="M4.067,41.536 C3.057,42.189 2.564,43.141 3.075,43.935 C3.451,44.515 4.225,44.649 5.275,43.97 C6.439,43.22 6.792,42.333 6.309,41.585 C5.926,40.993 5.058,40.898 4.067,41.536 Z M5.951,44.562 C4.762,45.332 3.447,45 2.762,43.939 C2.051,42.839 2.404,41.582 3.42,40.925 C4.337,40.333 5.796,40.301 6.645,41.614 C7.268,42.581 7.041,43.859 5.951,44.562 Z" id="Fill-54"></path>
            <path d="M7.276,45.562 L7.469,45.724 C7.673,45.895 7.841,45.982 8.06,45.992 C8.4,45.999 8.675,45.813 8.88,45.569 C9.321,45.037 9.109,44.548 8.782,44.275 C8.537,44.071 8.511,44.083 8.374,44.246 L7.276,45.562 Z M9.072,44.187 C9.444,44.498 9.674,44.761 9.768,45.064 C9.856,45.363 9.815,45.692 9.564,45.992 C9.207,46.421 8.69,46.5 8.149,46.309 C8.11,46.52 8.013,47.043 7.985,47.409 C7.944,47.851 7.923,48.145 7.936,48.328 C7.956,48.553 7.973,48.697 8.091,48.857 L7.96,48.973 L7.755,48.783 C7.232,48.278 7.178,47.991 7.217,47.539 C7.25,47.168 7.355,46.701 7.428,46.312 C7.465,46.102 7.447,45.999 7.293,45.872 L7.13,45.736 L6.56,46.419 C6.101,46.97 6.107,47.045 6.469,47.399 L6.35,47.542 L4.91,46.341 L5.03,46.198 C5.465,46.509 5.539,46.501 5.999,45.951 L7.489,44.165 C7.948,43.615 7.941,43.54 7.58,43.186 L7.698,43.043 L9.072,44.187 Z" id="Fill-55"></path>
            <path d="M13.22,47.032 C13.178,47.132 12.958,47.572 12.789,47.951 L12.609,47.863 C12.709,47.554 12.731,47.352 12.694,47.216 C12.652,47.062 12.486,46.922 12.128,46.718 L11.838,46.554 C11.619,46.429 11.607,46.422 11.488,46.63 L10.793,47.857 L11.289,48.14 C11.787,48.421 11.817,48.394 12.129,47.982 L12.314,48.086 L11.617,49.313 L11.432,49.207 C11.634,48.717 11.636,48.687 11.138,48.405 L10.641,48.122 L10.101,49.071 C9.911,49.406 9.842,49.581 9.903,49.715 C9.968,49.844 10.173,49.968 10.415,50.106 C10.705,50.27 10.985,50.399 11.189,50.323 C11.348,50.269 11.558,50.128 11.815,49.907 L11.969,50.04 C11.834,50.224 11.371,50.74 11.233,50.876 L8.411,49.273 L8.503,49.11 C9.019,49.358 9.093,49.339 9.447,48.714 L10.598,46.69 C10.953,46.066 10.933,45.993 10.513,45.708 L10.605,45.546 L13.22,47.032" id="Fill-56"></path>
            <path d="M14.792,47.753 L14.977,51.244 L17.446,48.815 L18.613,49.284 L18.544,49.456 C18.024,49.304 17.989,49.32 17.731,50.004 L16.926,52.189 C16.668,52.888 16.681,52.907 17.161,53.156 L17.093,53.331 L15.371,52.641 L15.44,52.467 C15.94,52.61 15.965,52.606 16.235,51.912 L17.16,49.532 L17.134,49.522 L14.444,52.183 L14.259,52.109 L14.148,48.469 L14.123,48.458 L13.439,50.04 C13.204,50.591 13.074,50.932 13.025,51.128 C12.956,51.372 13.065,51.474 13.458,51.674 L13.389,51.847 L11.926,51.261 L11.995,51.088 C12.314,51.187 12.462,51.174 12.599,50.957 C12.704,50.784 12.9,50.44 13.167,49.86 L13.745,48.616 C14.117,47.812 14.1,47.733 13.587,47.471 L13.656,47.297 L14.792,47.753" id="Fill-57"></path>
            <path d="M21.725,52.431 C21.596,52.823 21.182,53.038 20.803,52.913 C20.425,52.789 20.212,52.368 20.341,51.977 C20.467,51.591 20.889,51.373 21.268,51.498 C21.648,51.623 21.852,52.046 21.725,52.431" id="Fill-58"></path>
            <path d="M25.489,52.319 C25.729,52.882 25.838,52.973 26.311,52.773 C27.327,52.341 27.55,51.402 27.119,50.385 C26.563,49.075 25.709,48.902 24.729,49.318 C24.527,49.404 24.378,49.496 24.355,49.542 C24.331,49.588 24.378,49.698 24.445,49.858 L25.489,52.319 Z M24.898,48.994 C25.592,48.723 26.281,48.624 26.845,48.86 C27.241,49.034 27.656,49.401 27.869,49.945 C28.465,51.47 27.55,52.599 26.101,53.166 L24.583,53.758 L24.515,53.586 C25.009,53.35 25.038,53.281 24.777,52.612 L23.929,50.444 C23.668,49.775 23.599,49.745 23.126,49.887 L23.058,49.713 L24.898,48.994 Z" id="Fill-59"></path>
            <path d="M29.744,46.78 C29.805,46.869 30.053,47.294 30.277,47.643 L30.106,47.745 C29.9,47.492 29.744,47.362 29.61,47.319 C29.458,47.27 29.25,47.332 28.884,47.52 L28.588,47.671 C28.362,47.786 28.35,47.792 28.46,48.005 L29.102,49.26 L29.611,48.999 C30.12,48.739 30.114,48.697 29.939,48.211 L30.13,48.115 L30.772,49.369 L30.583,49.466 C30.282,49.028 30.259,49.012 29.751,49.272 L29.242,49.533 L29.738,50.503 C29.914,50.847 30.023,51 30.169,51.023 C30.313,51.04 30.528,50.936 30.777,50.808 C31.072,50.657 31.333,50.493 31.382,50.282 C31.425,50.118 31.423,49.865 31.377,49.529 L31.572,49.474 C31.652,49.687 31.832,50.358 31.868,50.547 L28.981,52.027 L28.896,51.862 C29.386,51.565 29.41,51.494 29.081,50.854 L28.022,48.783 C27.693,48.144 27.622,48.121 27.153,48.315 L27.07,48.15 L29.744,46.78" id="Fill-60"></path>
            <path d="M31.833,45.512 L31.931,45.67 C31.522,45.97 31.504,46.043 31.883,46.655 L33.109,48.634 C33.487,49.245 33.561,49.263 34.012,49.031 L34.109,49.189 L32.514,50.176 L32.417,50.019 C32.836,49.711 32.854,49.639 32.475,49.027 L31.249,47.047 C30.871,46.436 30.798,46.418 30.336,46.658 L30.237,46.499 L31.833,45.512" id="Fill-61"></path>
            <path d="M35.346,45.403 C35.603,45.726 35.555,46.189 35.242,46.437 C34.931,46.686 34.463,46.633 34.206,46.31 C33.953,45.992 34.003,45.52 34.314,45.272 C34.627,45.024 35.094,45.086 35.346,45.403" id="Fill-62"></path>
            <path d="M39.861,41.204 C40.09,41.278 40.293,41.343 40.437,41.35 C40.424,41.778 40.411,42.332 40.255,42.814 C39.797,44.224 38.648,44.893 37.384,44.482 C35.943,44.014 35.563,42.619 35.966,41.379 C36.143,40.834 36.401,40.429 36.526,40.218 C36.746,40.275 37.086,40.344 37.583,40.449 L37.543,40.66 C36.692,40.566 36.355,41.044 36.187,41.562 C35.903,42.435 36.374,43.245 37.525,43.619 C38.499,43.936 39.64,43.845 40.014,42.693 C40.081,42.491 40.093,42.363 40.083,42.248 C40.071,42.111 39.979,42.026 39.726,41.944 L39.196,41.77 C38.765,41.631 38.719,41.644 38.451,42.298 L38.261,42.236 L38.833,40.478 L39.022,40.54 C38.965,40.885 38.982,40.918 39.425,41.062 L39.861,41.204" id="Fill-63"></path>
            <path d="M36.82,37.691 L37.005,37.718 C36.968,38.249 37.013,38.31 37.725,38.411 L40.017,38.736 C40.399,38.791 40.589,38.777 40.684,38.677 C40.778,38.576 40.822,38.361 40.852,38.149 C40.896,37.847 40.985,37.044 40.84,36.882 C40.73,36.753 40.521,36.616 40.22,36.465 L40.29,36.261 C40.495,36.33 41.146,36.57 41.336,36.65 L40.828,40.222 L40.642,40.196 C40.681,39.637 40.636,39.577 39.925,39.476 L37.621,39.149 C36.91,39.048 36.849,39.093 36.734,39.614 L36.55,39.588 L36.82,37.691" id="Fill-64"></path>
            <path d="M38.971,35.254 C40.172,35.336 41.137,34.87 41.201,33.927 C41.248,33.237 40.707,32.666 39.46,32.582 C38.079,32.487 37.265,32.985 37.205,33.874 C37.157,34.577 37.796,35.175 38.971,35.254 Z M39.273,31.702 C40.686,31.799 41.542,32.85 41.455,34.111 C41.366,35.417 40.332,36.214 39.124,36.132 C38.035,36.058 36.847,35.209 36.954,33.65 C37.032,32.502 37.979,31.614 39.273,31.702 Z" id="Fill-65"></path>
            <path d="M39.257,30.214 L39.257,29.961 C39.257,29.695 39.217,29.509 39.084,29.336 C38.871,29.07 38.551,28.977 38.232,28.977 C37.541,28.977 37.301,29.456 37.301,29.881 C37.301,30.201 37.328,30.214 37.541,30.214 L39.257,30.214 Z M37.048,29.714 C37.048,29.229 37.102,28.883 37.275,28.617 C37.448,28.358 37.727,28.179 38.119,28.179 C38.678,28.179 39.071,28.524 39.27,29.063 C39.457,28.957 39.923,28.697 40.221,28.484 C40.587,28.232 40.827,28.059 40.959,27.933 C41.119,27.773 41.219,27.666 41.265,27.473 L41.439,27.5 L41.425,27.779 C41.372,28.504 41.185,28.73 40.813,28.99 C40.507,29.203 40.083,29.422 39.736,29.615 C39.549,29.722 39.483,29.802 39.483,30 L39.483,30.214 L40.375,30.214 C41.092,30.214 41.146,30.161 41.185,29.655 L41.372,29.655 L41.372,31.531 L41.185,31.531 C41.146,30.999 41.092,30.946 40.375,30.946 L38.046,30.946 C37.328,30.946 37.275,30.999 37.235,31.504 L37.048,31.504 L37.048,29.714 Z" id="Fill-66"></path>
            <path d="M37.048,25.144 L37.235,25.144 C37.275,25.649 37.328,25.703 38.046,25.703 L40.375,25.703 C41.092,25.703 41.146,25.649 41.185,25.144 L41.372,25.144 L41.372,27.02 L41.185,27.02 C41.146,26.501 41.092,26.448 40.375,26.448 L38.046,26.448 C37.328,26.448 37.275,26.501 37.235,27.02 L37.048,27.02 L37.048,25.144" id="Fill-67"></path>
            <path d="M39.537,23.367 L39.537,22.31 L38.073,22.828 L38.073,22.848 L39.537,23.367 Z M36.968,22.475 L38.206,22.017 C39.017,21.717 39.842,21.425 40.507,21.172 C41.099,20.945 41.146,20.853 41.185,20.467 L41.372,20.467 L41.372,22.216 L41.185,22.216 L41.158,22.03 C41.119,21.777 41.051,21.764 40.799,21.844 C40.601,21.91 40.188,22.07 39.842,22.209 L39.842,23.44 C40.042,23.526 40.414,23.646 40.694,23.739 C41.046,23.858 41.132,23.806 41.167,23.513 L41.185,23.327 L41.372,23.327 L41.372,24.803 L41.185,24.803 C41.132,24.391 41.106,24.318 40.507,24.085 L37.048,22.742 L36.968,22.475 Z" id="Fill-68"></path>
            <path d="M37.048,18.711 L40.221,17.242 L37.048,15.851 L37.048,14.594 L37.235,14.594 C37.288,15.133 37.315,15.16 38.046,15.146 L40.375,15.08 C41.119,15.06 41.132,15.04 41.185,14.501 L41.372,14.501 L41.372,16.357 L41.185,16.357 C41.132,15.838 41.119,15.818 40.375,15.825 L37.82,15.851 L37.82,15.878 L41.292,17.388 L41.292,17.587 L37.953,19.044 L37.953,19.07 L39.676,19.117 C40.274,19.13 40.64,19.124 40.84,19.097 C41.092,19.07 41.146,18.931 41.185,18.492 L41.372,18.492 L41.372,20.068 L41.185,20.068 C41.158,19.735 41.092,19.603 40.84,19.556 C40.64,19.523 40.248,19.469 39.609,19.436 L38.239,19.363 C37.354,19.317 37.288,19.363 37.235,19.935 L37.048,19.935 L37.048,18.711" id="Fill-69"></path>
            <path d="M0.977,8.04 L0.977,7.684 C2.028,7.622 2.105,7.545 2.105,6.383 L2.105,2.777 C2.105,1.615 2.013,1.554 1.052,1.491 L1.052,1.135 L4.401,1.135 L4.401,1.491 C3.366,1.554 3.275,1.615 3.275,2.777 L3.275,6.43 C3.275,7.034 3.35,7.343 3.562,7.452 C3.771,7.56 4.087,7.576 4.642,7.576 C5.228,7.576 5.709,7.467 5.948,7.189 C6.13,7.003 6.31,6.647 6.461,6.151 L6.851,6.198 C6.776,6.554 6.55,7.746 6.461,8.04 L0.977,8.04" id="Fill-70"></path>
            <path d="M10.682,7.761 C11.838,7.761 12.754,6.987 12.754,4.82 C12.754,3.055 11.912,1.414 10.41,1.414 C9.194,1.414 8.323,2.483 8.323,4.371 C8.323,6.383 9.194,7.761 10.682,7.761 Z M6.971,4.743 C6.971,2.142 8.952,0.949 10.546,0.949 C12.708,0.949 14.107,2.513 14.107,4.51 C14.107,6.941 12.318,8.226 10.561,8.226 C8.233,8.226 6.971,6.415 6.971,4.743 Z" id="Fill-71"></path>
            <path d="M15.58,8.04 L15.58,7.684 C16.662,7.607 16.737,7.529 16.737,6.399 L16.737,5.455 C16.737,5.16 16.707,5.068 16.511,4.727 C16.195,4.154 15.775,3.442 15.084,2.266 C14.694,1.584 14.588,1.569 13.912,1.491 L13.912,1.135 L16.917,1.135 L16.917,1.491 L16.451,1.554 C16.106,1.6 16.09,1.693 16.241,2.003 C16.316,2.157 17.278,3.86 17.638,4.464 C18.104,3.643 18.568,2.606 18.809,2.095 C19.005,1.662 18.975,1.6 18.568,1.554 L18.133,1.491 L18.133,1.135 L20.777,1.135 L20.777,1.491 C19.966,1.569 19.906,1.677 19.501,2.281 C19.095,2.885 18.645,3.628 18.149,4.526 C17.923,4.944 17.907,5.052 17.907,5.284 L17.907,6.399 C17.907,7.529 17.999,7.607 19.11,7.684 L19.11,8.04 L15.58,8.04" id="Fill-72"></path>
            <path d="M24.101,7.761 C25.258,7.761 26.173,6.987 26.173,4.82 C26.173,3.055 25.332,1.414 23.83,1.414 C22.613,1.414 21.742,2.483 21.742,4.371 C21.742,6.383 22.613,7.761 24.101,7.761 Z M20.39,4.743 C20.39,2.142 22.372,0.949 23.965,0.949 C26.127,0.949 27.526,2.513 27.526,4.51 C27.526,6.941 25.737,8.226 23.98,8.226 C21.652,8.226 20.39,6.415 20.39,4.743 Z" id="Fill-73"></path>
            <path d="M28.051,8.04 L28.051,7.684 C29.102,7.622 29.177,7.545 29.177,6.383 L29.177,2.777 C29.177,1.615 29.087,1.554 28.125,1.491 L28.125,1.135 L31.476,1.135 L31.476,1.491 C30.439,1.554 30.349,1.615 30.349,2.777 L30.349,6.43 C30.349,7.034 30.424,7.343 30.635,7.452 C30.845,7.56 31.16,7.576 31.717,7.576 C32.302,7.576 32.782,7.467 33.023,7.189 C33.203,7.003 33.384,6.647 33.533,6.151 L33.924,6.198 C33.849,6.554 33.624,7.746 33.533,8.04 L28.051,8.04" id="Fill-74"></path>
            <path d="M36.446,4.975 L38.189,4.975 L37.318,2.622 L37.288,2.622 L36.446,4.975 Z M38.34,7.684 L38.625,7.653 C39.046,7.607 39.181,7.483 38.881,6.756 L38.37,5.501 L36.282,5.501 C36.176,5.749 35.921,6.477 35.772,6.941 C35.591,7.467 35.727,7.622 36.161,7.653 L36.507,7.684 L36.507,8.04 L33.878,8.04 L33.878,7.684 C34.539,7.607 34.796,7.545 35.231,6.477 L37.454,1.043 L37.828,0.949 L40.068,6.663 C40.428,7.576 40.714,7.638 41.374,7.684 L41.374,8.04 L38.34,8.04 L38.34,7.684 Z" id="Fill-75"></path>
            <path d="M12.027,23.71 C11.765,23.71 11.554,23.931 11.554,24.204 C11.554,24.472 11.765,24.686 12.027,24.686 C12.289,24.686 12.499,24.472 12.499,24.204 C12.499,23.931 12.289,23.71 12.027,23.71" id="Fill-76"></path>
            <path d="M12.027,22.866 C12.269,22.866 12.462,22.666 12.462,22.42 C12.462,22.174 12.269,21.974 12.027,21.974 C11.786,21.974 11.591,22.174 11.591,22.42 C11.591,22.666 11.786,22.866 12.027,22.866" id="Fill-77"></path>
            <path d="M18.946,22.189 C18.432,22.189 18.31,23.004 18.31,23.376 C18.31,23.749 18.432,24.575 18.946,24.575 C19.462,24.575 19.585,23.749 19.585,23.376 C19.585,23.004 19.462,22.189 18.946,22.189" id="Fill-78"></path>
            <polyline id="Fill-79" points="16.047 28.022 16.818 28.022 16.659 27.756 16.047 28.022"></polyline>
            <path d="M29.428,34.191 C30.689,34.779 30.689,36.144 30.689,35.789 C30.689,33.755 30.019,33.899 30.047,32.614 C30.073,31.331 31.447,31.442 31.447,31.442 C31.986,31.45 32.148,31.78 32.148,31.78 C32.148,31.78 31.877,31.722 31.767,31.868 C31.767,31.868 31.359,32.165 32.091,33.91 C32.239,34.262 32.89,35.489 32.104,36.376 C31.548,37.003 30.661,36.77 30.661,36.77 C30.605,37.107 30.577,37.274 30.577,37.274 L31.221,37.274 C31.811,37.303 31.839,37.948 31.839,37.948 L31.839,40.668 L31.389,41.116 L29.904,41.116 C29.877,40.443 30.746,40.163 30.746,40.163 L30.746,38.985 L29.371,38.985 C28.642,38.929 28.251,37.527 28.251,37.527 L27.717,37.584 C27.689,37.668 28.474,39.097 28.474,39.097 L26.876,40.612 L26.876,41.06 L25.138,41.06 C25.054,40.639 25.894,40.275 25.894,40.275 L26.988,39.097 C27.128,38.946 27.03,38.791 26.841,38.729 C26.633,38.66 26.466,38.613 26.232,38.523 C25.995,38.433 24.997,37.808 25.419,36.602 C25.832,35.417 27.213,35.901 27.213,35.761 C27.213,35.621 26.484,33.939 26.484,33.939 L27.073,33.069 L26.371,33.518 L24.521,33.181 C24.325,34.752 23.595,34.359 23.595,34.359 L23.595,33.181 C23.595,33.181 23.623,32.406 24.325,32.172 C25.166,31.892 25.755,32.059 26.007,32.003 C26.259,31.947 26.186,31.723 26.186,31.723 L25.082,31.751 L24.1,30.938 L23.567,30.882 C22.586,30.714 22.951,29.957 22.951,29.957 C22.951,29.957 23.82,29.957 24.353,29.957 C24.884,29.957 26.259,30.966 26.259,30.966 C26.259,30.966 26.456,29.845 25.419,29.452 C24.381,29.06 24.605,28.752 24.605,28.752 L25.586,29.088 C25.586,29.088 25.699,28.975 25.531,28.723 C25.44,28.587 24.66,28.303 24.66,28.303 C24.044,28.078 24.24,27.574 24.24,27.574 L25.335,27.685 C25.586,27.462 25.557,27.433 25.923,27.377 C26.287,27.321 26.848,27.826 26.791,27.657 C26.736,27.489 26.679,26.985 26.624,26.48 C26.574,26.027 28.053,28.134 28.053,28.134 C29.96,31.751 29.428,34.191 29.428,34.191 Z M24.146,36.191 L24.146,38.3 C24.146,38.3 24.181,39.398 23.254,40.325 C22.291,41.288 21.213,41.186 21.197,41.184 C21.18,41.186 20.103,41.288 19.139,40.325 C18.211,39.398 18.247,38.3 18.247,38.3 L18.247,36.191 C18.247,36.191 17.985,36.122 17.972,35.865 C17.955,35.539 18.298,35.591 18.298,35.591 L18.985,35.591 C18.951,36.312 19.398,36.226 19.398,36.226 C19.877,36.243 19.775,35.591 19.775,35.591 L22.619,35.591 C22.619,35.591 22.514,36.243 22.996,36.226 C22.996,36.226 23.442,36.312 23.409,35.591 L24.095,35.591 C24.095,35.591 24.438,35.539 24.42,35.865 C24.408,36.122 24.146,36.191 24.146,36.191 Z M15.906,33.939 C15.906,33.939 15.178,35.621 15.178,35.761 C15.178,35.901 16.559,35.417 16.972,36.602 C17.393,37.808 16.395,38.433 16.159,38.523 C15.924,38.613 15.757,38.66 15.55,38.729 C15.361,38.791 15.263,38.946 15.403,39.097 L16.495,40.275 C16.495,40.275 17.337,40.639 17.252,41.06 L15.514,41.06 L15.514,40.612 L13.915,39.097 C13.915,39.097 14.7,37.668 14.673,37.584 L14.141,37.527 C14.141,37.527 13.747,38.929 13.019,38.985 L11.645,38.985 L11.645,40.163 C11.645,40.163 12.514,40.443 12.485,41.116 L11,41.116 L10.551,40.668 L10.551,37.948 C10.551,37.948 10.579,37.303 11.168,37.274 L11.812,37.274 C11.812,37.274 11.784,37.107 11.729,36.77 C11.729,36.77 10.842,37.003 10.285,36.376 C9.499,35.489 10.15,34.262 10.299,33.91 C11.03,32.165 10.623,31.868 10.623,31.868 C10.514,31.722 10.242,31.78 10.242,31.78 C10.242,31.78 10.403,31.45 10.942,31.442 C10.942,31.442 12.317,31.331 12.344,32.614 C12.371,33.899 11.7,33.755 11.7,35.789 C11.7,36.144 11.7,34.779 12.963,34.191 C12.963,34.191 12.431,31.751 14.337,28.134 C14.337,28.134 15.817,26.027 15.766,26.48 C15.71,26.985 15.653,27.489 15.599,27.657 C15.542,27.826 16.103,27.321 16.467,27.377 C16.831,27.433 16.804,27.462 17.057,27.685 L18.15,27.574 C18.15,27.574 18.346,28.078 17.73,28.303 C17.73,28.303 16.949,28.587 16.859,28.723 C16.692,28.975 16.804,29.088 16.804,29.088 L17.785,28.752 C17.785,28.752 18.009,29.06 16.972,29.452 C15.934,29.845 16.131,30.966 16.131,30.966 C16.131,30.966 17.505,29.957 18.037,29.957 C18.57,29.957 19.44,29.957 19.44,29.957 C19.44,29.957 19.804,30.714 18.823,30.882 L18.289,30.938 L17.309,31.751 L16.203,31.723 C16.203,31.723 16.131,31.947 16.382,32.003 C16.635,32.059 17.224,31.892 18.065,32.172 C18.768,32.406 18.794,33.181 18.794,33.181 L18.794,34.359 C18.794,34.359 18.065,34.752 17.869,33.181 L16.019,33.518 L15.317,33.069 L15.906,33.939 Z M9.837,25.414 L8.837,25.414 L8.837,22.306 L8.418,22.306 L8.584,21.423 L9.837,21.423 L9.837,25.414 Z M10.679,22.389 C10.679,21.633 11.35,21.26 12.027,21.26 C12.703,21.26 13.375,21.633 13.375,22.389 C13.375,22.809 13.113,23.165 12.751,23.286 L12.751,23.296 C13.224,23.454 13.538,23.815 13.538,24.334 C13.538,25.153 12.709,25.531 12.027,25.531 C11.344,25.531 10.515,25.153 10.515,24.334 C10.515,23.815 10.83,23.454 11.303,23.296 L11.303,23.286 C10.941,23.165 10.679,22.809 10.679,22.389 Z M14.064,22.415 L14.064,21.459 L17.365,21.459 L15.156,25.414 L13.917,25.414 L15.669,22.415 L14.064,22.415 Z M18.946,21.307 C20.089,21.307 20.577,22.382 20.577,23.382 C20.577,24.381 20.094,25.457 18.946,25.457 C17.8,25.457 17.315,24.381 17.315,23.382 C17.315,22.382 17.805,21.307 18.946,21.307 Z M21.179,27.189 C21.186,27.189 21.19,27.196 21.196,27.196 C21.203,27.196 21.207,27.189 21.214,27.189 C21.364,27.189 21.487,27.311 21.487,27.462 C21.487,27.563 21.432,27.651 21.352,27.699 L21.351,27.703 L21.349,33.15 L23.148,34.977 L23.148,35.558 L22.878,35.558 L22.876,35.095 L21.196,33.382 L19.517,35.095 L19.515,35.558 L19.244,35.558 L19.244,34.977 L21.044,33.15 L21.042,27.703 L21.041,27.699 C20.961,27.651 20.905,27.563 20.905,27.462 C20.905,27.311 21.028,27.189 21.179,27.189 Z M34.699,18.381 L27.034,25.418 L25.096,25.418 L34.699,16.61 L34.699,14.848 L23.159,25.418 L21.221,25.418 L32.848,14.848 L30.91,14.848 L21.22,23.656 L21.22,21.894 L28.972,14.848 L27.034,14.848 L21.221,20.133 L21.221,18.371 L25.096,14.848 L23.159,14.848 L21.221,16.609 L21.221,14.848 L7.678,14.848 L7.678,36.372 C7.678,44.274 21.189,47.589 21.189,47.589 C21.189,47.589 34.699,44.274 34.699,36.372 L34.699,25.418 L32.848,25.418 L34.699,23.657 L34.699,21.895 L30.91,25.418 L28.972,25.418 L34.699,20.133 L34.699,18.381 Z" id="Fill-80"></path>
            <polyline id="Fill-81" points="26.343 28.022 25.572 28.022 25.731 27.756 26.343 28.022"></polyline>
            <path d="M0.977,10.298 L1.464,10.298 L1.464,11.71 C1.464,11.867 1.482,11.983 1.52,12.055 C1.578,12.184 1.704,12.248 1.899,12.248 C2.093,12.248 2.219,12.184 2.276,12.055 C2.314,11.983 2.332,11.867 2.332,11.71 L2.332,10.298 L2.82,10.298 L2.82,11.71 C2.82,11.955 2.782,12.146 2.707,12.281 C2.565,12.53 2.296,12.656 1.899,12.656 C1.501,12.656 1.231,12.53 1.089,12.281 C1.013,12.146 0.977,11.955 0.977,11.71 L0.977,10.298" id="Fill-82"></path>
            <polyline id="Fill-83" points="3.681 10.298 4.185 10.298 5.096 11.901 5.096 10.298 5.544 10.298 5.544 12.596 5.064 12.596 4.128 10.966 4.128 12.596 3.681 12.596 3.681 10.298"></polyline>
            <polygon id="Fill-84" points="6.405 12.597 6.883 12.597 6.883 10.298 6.405 10.298"></polygon>
            <polyline id="Fill-85" points="9.082 10.298 9.581 10.298 8.798 12.596 8.343 12.596 7.567 10.298 8.079 10.298 8.578 12.043 9.082 10.298"></polyline>
            <polyline id="Fill-86" points="11.849 10.705 10.633 10.705 10.633 11.193 11.749 11.193 11.749 11.592 10.633 11.592 10.633 12.183 11.905 12.183 11.905 12.596 10.163 12.596 10.163 10.298 11.849 10.298 11.849 10.705"></polyline>
            <path d="M13.122,10.697 L13.122,11.315 L13.638,11.315 C13.74,11.315 13.817,11.302 13.869,11.277 C13.96,11.234 14.006,11.148 14.006,11.019 C14.006,10.879 13.961,10.785 13.874,10.738 C13.824,10.711 13.75,10.697 13.652,10.697 L13.122,10.697 Z M14.114,10.357 C14.199,10.394 14.27,10.447 14.329,10.518 C14.378,10.576 14.416,10.641 14.444,10.711 C14.473,10.782 14.487,10.863 14.487,10.953 C14.487,11.061 14.459,11.169 14.404,11.275 C14.349,11.38 14.258,11.455 14.132,11.498 C14.237,11.541 14.313,11.602 14.357,11.68 C14.401,11.759 14.423,11.879 14.423,12.04 L14.423,12.194 C14.423,12.299 14.428,12.37 14.436,12.408 C14.449,12.467 14.479,12.51 14.524,12.538 L14.524,12.596 L13.995,12.596 C13.98,12.545 13.969,12.505 13.964,12.473 C13.95,12.408 13.944,12.343 13.943,12.275 L13.94,12.062 C13.938,11.915 13.913,11.817 13.863,11.769 C13.815,11.719 13.724,11.695 13.591,11.695 L13.122,11.695 L13.122,12.596 L12.652,12.596 L12.652,10.298 L13.751,10.298 C13.908,10.301 14.029,10.321 14.114,10.357 Z" id="Fill-87"></path>
            <path d="M15.536,11.887 C15.55,11.992 15.58,12.07 15.624,12.122 C15.703,12.217 15.84,12.264 16.032,12.264 C16.148,12.264 16.242,12.251 16.315,12.226 C16.452,12.179 16.52,12.09 16.52,11.96 C16.52,11.885 16.486,11.826 16.419,11.784 C16.352,11.743 16.246,11.707 16.1,11.677 L15.851,11.622 C15.607,11.568 15.439,11.508 15.347,11.446 C15.192,11.34 15.115,11.174 15.115,10.948 C15.115,10.743 15.191,10.572 15.342,10.435 C15.494,10.299 15.716,10.231 16.01,10.231 C16.255,10.231 16.464,10.295 16.637,10.423 C16.81,10.552 16.901,10.738 16.91,10.982 L16.448,10.982 C16.44,10.845 16.378,10.746 16.263,10.688 C16.186,10.649 16.091,10.63 15.977,10.63 C15.85,10.63 15.748,10.655 15.673,10.705 C15.597,10.755 15.56,10.825 15.56,10.914 C15.56,10.996 15.597,11.058 15.671,11.098 C15.719,11.125 15.821,11.157 15.977,11.193 L16.38,11.288 C16.557,11.33 16.689,11.386 16.778,11.455 C16.914,11.563 16.983,11.719 16.983,11.924 C16.983,12.134 16.902,12.308 16.74,12.448 C16.577,12.586 16.348,12.656 16.052,12.656 C15.748,12.656 15.511,12.587 15.338,12.451 C15.164,12.314 15.077,12.126 15.077,11.887 L15.536,11.887" id="Fill-88"></path>
            <polygon id="Fill-89" points="17.717 12.597 18.194 12.597 18.194 10.298 17.717 10.298"></polygon>
            <polyline id="Fill-90" points="20.789 10.298 20.789 10.705 20.102 10.705 20.102 12.596 19.619 12.596 19.619 10.705 18.928 10.705 18.928 10.298 20.789 10.298"></polyline>
            <polyline id="Fill-91" points="22.599 10.298 23.143 10.298 22.375 11.735 22.375 12.596 21.894 12.596 21.894 11.735 21.099 10.298 21.665 10.298 22.142 11.299 22.599 10.298"></polyline>
            <path d="M25.17,10.538 C25.356,10.349 25.59,10.255 25.877,10.255 C26.259,10.255 26.539,10.381 26.716,10.635 C26.814,10.777 26.866,10.92 26.873,11.064 L26.392,11.064 C26.362,10.954 26.323,10.87 26.275,10.814 C26.189,10.715 26.063,10.665 25.895,10.665 C25.724,10.665 25.589,10.734 25.49,10.876 C25.391,11.017 25.341,11.216 25.341,11.474 C25.341,11.731 25.394,11.924 25.498,12.053 C25.603,12.181 25.735,12.245 25.895,12.245 C26.06,12.245 26.186,12.19 26.272,12.08 C26.32,12.021 26.359,11.932 26.391,11.814 L26.868,11.814 C26.827,12.064 26.722,12.268 26.553,12.425 C26.384,12.581 26.167,12.66 25.902,12.66 C25.575,12.66 25.318,12.554 25.131,12.342 C24.945,12.129 24.851,11.837 24.851,11.466 C24.851,11.065 24.957,10.755 25.17,10.538" id="Fill-92"></path>
            <polyline id="Fill-93" points="27.549 12.596 27.549 10.298 28.027 10.298 28.027 11.174 28.92 11.174 28.92 10.298 29.397 10.298 29.397 12.596 28.92 12.596 28.92 11.57 28.027 11.57 28.027 12.596 27.549 12.596"></polyline>
            <polygon id="Fill-94" points="30.29 12.597 30.767 12.597 30.767 10.298 30.29 10.298"></polygon>
            <path d="M31.831,10.538 C32.017,10.349 32.252,10.255 32.537,10.255 C32.921,10.255 33.201,10.381 33.377,10.635 C33.474,10.777 33.527,10.92 33.534,11.064 L33.054,11.064 C33.024,10.954 32.984,10.87 32.937,10.814 C32.851,10.715 32.724,10.665 32.556,10.665 C32.385,10.665 32.25,10.734 32.151,10.876 C32.052,11.017 32.003,11.216 32.003,11.474 C32.003,11.731 32.055,11.924 32.159,12.053 C32.264,12.181 32.396,12.245 32.556,12.245 C32.721,12.245 32.847,12.19 32.933,12.08 C32.982,12.021 33.021,11.932 33.053,11.814 L33.529,11.814 C33.488,12.064 33.384,12.268 33.215,12.425 C33.045,12.581 32.828,12.66 32.564,12.66 C32.237,12.66 31.98,12.554 31.793,12.342 C31.606,12.129 31.512,11.837 31.512,11.466 C31.512,11.065 31.618,10.755 31.831,10.538" id="Fill-95"></path>
            <path d="M34.64,11.728 L35.228,11.728 L34.938,10.824 L34.64,11.728 Z M34.671,10.298 L35.215,10.298 L36.028,12.596 L35.507,12.596 L35.355,12.124 L34.509,12.124 L34.354,12.596 L33.851,12.596 L34.671,10.298 Z" id="Fill-96"></path>
            <path d="M38.056,11.015 C38.02,10.858 37.931,10.749 37.79,10.686 C37.711,10.652 37.623,10.635 37.527,10.635 C37.341,10.635 37.189,10.704 37.071,10.845 C36.952,10.984 36.892,11.194 36.892,11.474 C36.892,11.756 36.956,11.956 37.086,12.073 C37.214,12.19 37.361,12.248 37.524,12.248 C37.686,12.248 37.818,12.202 37.92,12.11 C38.024,12.017 38.088,11.896 38.111,11.746 L37.579,11.746 L37.579,11.363 L38.537,11.363 L38.537,12.596 L38.219,12.596 L38.17,12.31 C38.078,12.418 37.995,12.494 37.92,12.539 C37.794,12.617 37.639,12.656 37.453,12.656 C37.148,12.656 36.899,12.55 36.705,12.339 C36.502,12.128 36.401,11.838 36.401,11.47 C36.401,11.098 36.503,10.8 36.708,10.575 C36.913,10.351 37.183,10.239 37.52,10.239 C37.812,10.239 38.047,10.313 38.224,10.461 C38.401,10.609 38.503,10.794 38.529,11.015 L38.056,11.015" id="Fill-97"></path>
            <path d="M40.785,12.043 C40.897,11.902 40.953,11.703 40.953,11.444 C40.953,11.186 40.897,10.987 40.785,10.846 C40.673,10.705 40.523,10.635 40.332,10.635 C40.142,10.635 39.991,10.705 39.876,10.845 C39.763,10.985 39.707,11.185 39.707,11.444 C39.707,11.703 39.763,11.902 39.876,12.043 C39.991,12.183 40.142,12.253 40.332,12.253 C40.523,12.253 40.673,12.183 40.785,12.043 Z M41.085,12.392 C40.912,12.571 40.661,12.66 40.332,12.66 C40.003,12.66 39.753,12.571 39.579,12.392 C39.346,12.173 39.23,11.857 39.23,11.444 C39.23,11.023 39.346,10.706 39.579,10.496 C39.753,10.318 40.003,10.228 40.332,10.228 C40.661,10.228 40.912,10.318 41.085,10.496 C41.317,10.706 41.433,11.023 41.433,11.444 C41.433,11.857 41.317,12.173 41.085,12.392 Z" id="Fill-98"></path>
        </g>
    </g>
</svg>